HIERARCHY
ROOT Hips
{
	OFFSET -3.958830 18.904000 13.208200
	CHANNELS 6 Xposition Yposition Zposition Zrotation Yrotation Xrotation 
	JOINT LHipJoint
	{
		OFFSET 0.000000 0.000000 0.000000
		CHANNELS 3 Zrotation Yrotation Xrotation
		JOINT LeftUpLeg
		{
			OFFSET 1.800000 -1.400000 0.085000
			CHANNELS 3 Zrotation Yrotation Xrotation
			JOINT LeftLeg
			{
				OFFSET 2.215000 -6.000000 0.000000
				CHANNELS 3 Zrotation Yrotation Xrotation
				JOINT LeftFoot
				{
					OFFSET 2.500000 -6.900000 0.000000
					CHANNELS 3 Zrotation Yrotation Xrotation
					JOINT LeftToeBase
					{
						OFFSET 0.200000 -0.500000 1.950000
						CHANNELS 3 Zrotation Yrotation Xrotation
						End Site
						{
							OFFSET 0.000000 0.000000 0.000000
						}
					}
				}
			}
		}
	}
	JOINT RHipJoint
	{
		OFFSET 0.000000 0.000000 0.000000
		CHANNELS 3 Zrotation Yrotation Xrotation
		JOINT RightUpLeg
		{
			OFFSET -1.800000 -1.400000 0.085000
			CHANNELS 3 Zrotation Yrotation Xrotation
			JOINT RightLeg
			{
				OFFSET -2.215000 -6.000000 0.000000
				CHANNELS 3 Zrotation Yrotation Xrotation
				JOINT RightFoot
				{
					OFFSET -2.500000 -6.900000 0.000000
					CHANNELS 3 Zrotation Yrotation Xrotation
					JOINT RightToeBase
					{
						OFFSET -0.200000 -0.500000 1.950000
						CHANNELS 3 Zrotation Yrotation Xrotation
						End Site
						{
							OFFSET 0.000000 0.000000 0.000000
						}
					}
				}
			}
		}
	}
	JOINT LowerBack
	{
		OFFSET 0.000000 0.000000 0.000000
		CHANNELS 3 Zrotation Yrotation Xrotation
		JOINT Spine
		{
			OFFSET -0.087000 1.940000 -0.288900
			CHANNELS 3 Zrotation Yrotation Xrotation
			JOINT Spine1
			{
				OFFSET 0.000000 1.950000 0.060000
				CHANNELS 3 Zrotation Yrotation Xrotation
				JOINT Neck
				{
					OFFSET 0.000000 0.000000 0.000000
					CHANNELS 3 Zrotation Yrotation Xrotation
					JOINT Neck1
					{
						OFFSET 0.000000 1.600000 0.340000
						CHANNELS 3 Zrotation Yrotation Xrotation
						JOINT Head
						{
							OFFSET 0.000000 1.667000 -0.240000
							CHANNELS 3 Zrotation Yrotation Xrotation
							End Site
							{
								OFFSET 0.000000 0.000000 0.000000
							}
						}
					}
				}
				JOINT LeftShoulder
				{
					OFFSET 0.000000 0.000000 0.000000
					CHANNELS 3 Zrotation Yrotation Xrotation
					JOINT LeftArm
					{
						OFFSET 2.700000 1.550000 -0.730000
						CHANNELS 3 Zrotation Yrotation Xrotation
						JOINT LeftForeArm
						{
							OFFSET 5.450000 0.000000 0.000000
							CHANNELS 3 Zrotation Yrotation Xrotation
							JOINT LeftHand
							{
								OFFSET 3.450000 0.000000 0.000000
								CHANNELS 3 Zrotation Yrotation Xrotation
								JOINT LeftHandIndex1
								{
									OFFSET 0.750000 0.000000 0.000000
									CHANNELS 3 Zrotation Yrotation Xrotation
									End Site
									{
										OFFSET 0.000000 0.000000 0.000000
									}
								}
							}
						}
					}
				}
				JOINT RightShoulder
				{
					OFFSET 0.000000 0.000000 0.000000
					CHANNELS 3 Zrotation Yrotation Xrotation
					JOINT RightArm
					{
						OFFSET -2.700000 1.550000 -0.730000
						CHANNELS 3 Zrotation Yrotation Xrotation
						JOINT RightForeArm
						{
							OFFSET -5.450000 0.000000 0.000000
							CHANNELS 3 Zrotation Yrotation Xrotation
							JOINT RightHand
							{
								OFFSET -3.450000 0.000000 0.000000
								CHANNELS 3 Zrotation Yrotation Xrotation
								JOINT RightHandIndex1
								{
									OFFSET -0.750000 0.000000 0.000000
									CHANNELS 3 Zrotation Yrotation Xrotation
									End Site
									{
										OFFSET 0.000000 0.000000 0.000000
									}
								}
							}
						}
					}
				}
			}
		}
	}
}
MOTION
Frames: 6
Frame Time: 0.016667
-0.041690 16.744610 -2.607720 -3.598371 -16.107661 -0.970230 -14.430793 12.955561 3.373760 6.132940 -2.560192 -18.442626 -12.676650 7.413537 16.516942 0.244644 4.120120 3.050043 0.381870 0.164120 0.493590 18.806991 -11.617775 2.924976 0.496960 1.108239 -11.103105 2.430707 -4.701411 18.167947 -0.360526 -3.356287 3.166260 -0.122800 -0.187590 0.339250 -5.173471 0.063331 -7.546839 32.905142 -5.042632 13.372855 -30.214878 2.253925 1.251972 13.344496 -1.821974 -12.097643 -5.610641 2.667394 46.279218 -10.265720 5.370170 -0.685800 -29.553104 -5.877655 2.245164 -41.040334 6.837742 -7.094094 -7.302458 -13.577711 -0.374298 -3.299378 3.284237 0.253250 -0.076140 0.316570 0.142530 0.447388 9.504927 10.119107 10.835183 -11.135726 -8.312462 -28.652635 43.620394 -7.559591 2.390450 -1.878516 0.222320 -0.251410 -0.318120 -0.023220 
-0.044580 16.741330 -2.608870 -3.674374 -16.173045 -1.040905 -14.437210 12.975553 3.385011 6.312535 -2.569515 -18.613960 -12.710995 7.516245 16.893543 0.250312 4.172212 3.025834 0.383300 0.164420 0.500510 18.796428 -11.603130 2.931023 0.523118 1.116846 -11.005501 2.555105 -4.742931 18.248923 -0.366190 -3.367153 3.159689 -0.124010 -0.195360 0.340830 -5.145521 0.010343 -7.570125 32.757348 -4.999219 13.671909 -29.931635 2.303062 1.011639 13.391810 -1.737184 -12.071928 -5.439645 2.573095 46.447599 -10.529940 5.456590 -0.852950 -29.679980 -5.781837 2.169786 -41.127039 6.854362 -7.092826 -7.303538 -13.474879 -0.381191 -3.299679 3.278574 0.257240 -0.079750 0.322040 0.138460 0.471476 9.417691 10.114889 11.169878 -11.184493 -8.443815 -29.650595 43.639109 -7.928881 2.393906 -1.868187 0.224110 -0.253680 -0.318520 -0.026660 
-0.050230 16.734440 -2.610720 -3.869153 -16.321995 -1.118392 -14.452378 13.012874 3.411092 6.728240 -2.581113 -18.986006 -12.831192 7.725070 17.567349 0.260505 4.283332 2.977858 0.387500 0.161930 0.514400 18.774551 -11.564794 2.943426 0.634774 1.155945 -10.869733 2.799561 -4.823284 18.440395 -0.375397 -3.387566 3.151586 -0.127540 -0.206750 0.344370 -5.085818 -0.105358 -7.617948 32.531659 -4.918498 14.246608 -29.385971 2.399243 0.448281 13.501149 -1.619890 -12.000104 -5.185699 2.416625 46.699913 -11.036860 5.614800 -1.097500 -29.957814 -5.513449 1.988234 -41.296993 6.946635 -7.123521 -7.320375 -13.387914 -0.391969 -3.298882 3.269565 0.266890 -0.084700 0.329610 0.133950 0.512282 9.215639 10.100408 11.933291 -11.387378 -8.764299 -31.925648 43.944791 -8.836042 2.394285 -1.848538 0.225260 -0.257270 -0.320420 -0.034300 
-0.059120 16.727180 -2.614450 -4.075353 -16.506570 -1.312472 -14.484046 13.097571 3.461680 7.271301 -2.587920 -19.435851 -13.019962 8.017507 18.425036 0.278049 4.436293 2.908751 0.387190 0.154420 0.526870 18.729936 -11.489284 2.957086 0.712585 1.185459 -10.588445 3.171456 -4.937491 18.651353 -0.386415 -3.408776 3.143224 -0.136030 -0.227150 0.341920 -4.963942 -0.363615 -7.706381 31.974066 -4.826449 15.277613 -28.477657 2.524801 -0.642547 13.660475 -1.485311 -12.002117 -4.979254 2.290446 47.467321 -11.592710 5.766500 -1.273700 -30.444861 -5.137963 1.750970 -41.585443 7.279254 -7.186299 -7.232728 -13.236420 -0.411142 -3.290943 3.252598 0.283420 -0.098070 0.340020 0.123120 0.670001 9.057044 10.110539 13.231823 -12.001124 -9.394057 -35.829892 45.034984 -10.578683 2.385878 -1.805138 0.225760 -0.262000 -0.318920 -0.045180 
-0.070680 16.718590 -2.616610 -4.260353 -16.719622 -1.458759 -14.527517 13.199595 3.528497 7.836596 -2.605088 -20.049297 -13.215665 8.365838 19.438562 0.310689 4.609381 2.828883 0.380610 0.144730 0.534150 18.673407 -11.389986 2.966588 0.772076 1.229878 -10.346847 3.578993 -5.052989 18.901354 -0.394910 -3.423844 3.134025 -0.150220 -0.250550 0.337490 -4.806891 -0.693769 -7.813294 31.216007 -4.674765 16.389795 -27.326792 2.674447 -2.058692 13.833985 -1.457469 -11.965572 -4.976321 2.245342 48.335188 -12.282650 5.990970 -1.268140 -30.960245 -4.502968 1.422570 -42.010464 7.765210 -7.280879 -7.199133 -13.067623 -0.417371 -3.281619 3.237805 0.293140 -0.114540 0.350970 0.109320 0.853618 8.789788 10.086670 15.085514 -12.841826 -10.283665 -41.311186 47.230942 -13.437935 2.362893 -1.736346 0.231840 -0.271030 -0.315770 -0.051510 
-0.085620 16.708780 -2.616930 -4.438269 -16.853125 -1.488100 -14.579305 13.294761 3.610998 8.437314 -2.641490 -20.882205 -13.447489 8.754046 20.534098 0.356799 4.801888 2.744017 0.372120 0.135140 0.533450 18.612233 -11.273545 2.972822 0.859240 1.280240 -10.164270 4.022402 -5.166308 19.102941 -0.403788 -3.432309 3.129114 -0.168360 -0.267030 0.338190 -4.633484 -1.048001 -7.934975 30.324834 -4.460851 17.381024 -26.030669 2.856775 -3.683485 13.970307 -1.448785 -11.898135 -4.979378 2.209341 49.261669 -12.837610 6.152510 -1.060660 -31.409810 -3.645953 1.037327 -42.585874 8.379781 -7.407055 -7.139549 -12.889101 -0.418682 -3.272931 3.223595 0.299890 -0.129560 0.365170 0.103930 1.076586 8.354329 10.075242 17.535790 -13.812321 -11.341942 -48.396496 50.165230 -17.646330 2.316554 -1.624943 0.242130 -0.280700 -0.315630 -0.048330 
